<?xml version="1.0" encoding="UTF-8"?>
<svg id="Layer_2" data-name="Layer 2" xmlns="http://www.w3.org/2000/svg" viewBox="0 0 206.41 37.72">
  <defs>
    <style>
      .cls-1 {
        fill: #05f;
      }

      .cls-2 {
        fill: #fff;
      }

      .cls-3 {
        fill: #161616;
      }
    </style>
  </defs>
  <g id="Layer_1-2" data-name="Layer 1">
    <rect class="cls-2" x="0" y="1.48" width="34.75" height="34.75" rx="17.37" ry="17.37"/>
    <g>
      <polygon class="cls-1" points="8.96 16.43 26.15 14.1 18.81 28.92 15.73 21.17 8.96 16.43"/>
      <path class="cls-1" d="M19.96,0H2.36C1.06,0,0,1.06,0,2.36v33c0,1.3,1.06,2.36,2.36,2.36h33c1.3,0,2.36-1.06,2.36-2.36v-17.6C37.72,7.95,29.77,0,19.96,0ZM32,19.3c0,7.49-6.07,13.56-13.56,13.56h-.03c-7.49,0-13.56-6.07-13.56-13.56v-.03c0-7.49,6.07-13.56,13.56-13.56h.03c7.49,0,13.56,6.07,13.56,13.56v.03Z"/>
      <g>
        <path class="cls-3" d="M50.91,33.69V6.96h19.35v4.15h-14.28v7.37h13.36v3.92h-13.36v11.29h-5.07Z"/>
        <path class="cls-3" d="M79.66,33.97c-2.05,0-3.75-.47-5.1-1.42s-2.02-2.36-2.02-4.25c0-1.43.38-2.54,1.14-3.32.76-.78,1.76-1.35,2.98-1.71,1.23-.36,2.55-.6,3.97-.73,1.91-.2,3.24-.38,4-.54.75-.15,1.29-1.2,1.29-1.2v-.14s-.5-1.47-1.17-1.98c-.67-.51-1.59-.77-2.76-.77s-2.17.26-2.92.77c-.75.51-1.15,1.17-1.22,1.87h-4.74c.12-1.78.97-3.29,2.55-4.43,1.59-1.14,3.72-1.72,6.42-1.72s4.77.57,6.28,1.72c1.51,1.14,2.26,2.7,2.16,4.67v12.9h-4.84v-2.76h.03c-.49.91-1.21,1.62-2.15,2.19s-2.24.86-3.92.86ZM80.78,30.63c1.61,0,2.83-.38,3.67-1.15.83-.77,1.25-1.7,1.25-2.8v-2.04c-.3.18-.88.34-1.74.49-.86.15-1.79.3-2.81.44-1.05.14-1.97.41-2.74.81-.77.4-1.16,1.03-1.16,1.89,0,.74.32,1.32.96,1.73.64.42,1.49.63,2.57.63Z"/>
        <path class="cls-3" d="M95.14,33.69V14.8h4.61v3.23h.11c.38-1.07.97-1.89,1.78-2.46.81-.57,1.87-.85,3.2-.85.34,0,.64,0,.9.03.27.02.5.03.69.04v4.01c-.18-.02-.49-.05-.93-.09-.44-.04-.9-.05-1.38-.05-1.17,0-2.15.37-2.94,1.11-.8.74-1.19,1.85-1.19,3.33v10.61h-4.84Z"/>
        <path class="cls-3" d="M109.19,33.69V14.8h4.84v3.27c.62-1.22,1.49-2.13,2.59-2.74,1.1-.61,2.31-.91,3.61-.91,1.39,0,2.62.33,3.68.97,1.07.65,1.81,1.52,2.24,2.6.55-1.08,1.4-1.95,2.55-2.6,1.16-.65,2.49-.97,4-.97,1.95,0,3.59.58,4.91,1.74,1.33,1.16,1.99,2.84,1.99,5.06v12.47h-5.07v-11.82c0-1.25-.37-2.17-1.12-2.74-.75-.58-1.64-.87-2.69-.87-1.24,0-2.23.36-2.94,1.07s-1.08,1.64-1.08,2.77v11.59h-4.84v-12.03c0-1.02-.35-1.85-1.05-2.47-.7-.62-1.59-.93-2.68-.93s-2.06.35-2.88,1.06c-.82.71-1.22,1.74-1.22,3.1v11.26h-4.84Z"/>
        <path class="cls-3" d="M146.35,11.98c-.85,0-1.55-.25-2.11-.74-.56-.49-.84-1.11-.84-1.83s.28-1.33.84-1.82c.56-.49,1.26-.73,2.11-.73s1.53.24,2.09.73c.56.49.84,1.1.84,1.82s-.28,1.34-.84,1.83c-.56.49-1.25.74-2.09.74ZM143.98,33.69V14.8h4.84v18.89h-4.84Z"/>
        <path class="cls-3" d="M160.48,34.06c-2.15,0-3.9-.64-5.25-1.91-1.36-1.28-2.04-3.12-2.04-5.55v-11.81h4.84v11.09c0,1.38.37,2.43,1.1,3.15.74.72,1.77,1.07,3.1,1.07s2.4-.37,3.26-1.11c.86-.74,1.29-1.91,1.29-3.52v-10.67h4.84v18.89h-4.84v-2.9c-1.43,2.18-3.54,3.27-6.3,3.27Z"/>
        <path class="cls-3" d="M176,33.69V14.8h4.84v3.27c.62-1.22,1.49-2.13,2.59-2.74,1.1-.61,2.31-.91,3.61-.91,1.39,0,2.62.33,3.68.97,1.07.65,1.81,1.52,2.24,2.6.55-1.08,1.4-1.95,2.55-2.6,1.16-.65,2.49-.97,4-.97,1.95,0,3.59.58,4.91,1.74,1.33,1.16,1.99,2.84,1.99,5.06v12.47h-5.07v-11.82c0-1.25-.37-2.17-1.12-2.74-.75-.58-1.64-.87-2.69-.87-1.24,0-2.23.36-2.94,1.07s-1.08,1.64-1.08,2.77v11.59h-4.61v-12.03c0-1.02-.36-1.85-1.08-2.47-.72-.62-1.64-.93-2.76-.93s-2.12.35-2.96,1.06c-.84.71-1.26,1.74-1.26,3.1v11.26h-4.84Z"/>
      </g>
    </g>
  </g>
</svg>