<?xml version="1.0" encoding="UTF-8"?>
<svg id="Layer_2" data-name="Layer 2" xmlns="http://www.w3.org/2000/svg" viewBox="0 0 50 50">
  <defs>
    <style>
      .cls-1 {
        fill: #05f;
      }

      .cls-2 {
        fill: #fff;
      }
    </style>
  </defs>
  <g id="Layer_1-2" data-name="Layer 1">
    <rect class="cls-2" x="0" y="3.09" width="46.06" height="46.06" rx="17.37" ry="17.37"/>
    <polygon class="cls-1" points="11.87 21.78 34.66 18.69 24.94 38.34 20.86 28.06 11.87 21.78"/>
    <path class="cls-1" d="M26.45,0H3.13C1.4,0,0,1.4,0,3.13v43.74c0,1.73,1.4,3.13,3.13,3.13h43.74c1.73,0,3.13-1.4,3.13-3.13v-23.33C50,10.54,39.46,0,26.45,0ZM42.42,25.59c0,9.93-8.05,17.97-17.97,17.97h-.04c-9.93,0-17.97-8.05-17.97-17.97v-.04C6.44,15.62,14.48,7.58,24.41,7.58h.04c9.93,0,17.97,8.05,17.97,17.97v.04Z"/>
  </g>
</svg>